<svg xmlns="http://www.w3.org/2000/svg" width="60" height="60" viewBox="0 0 60 60"><title>samsung_care+_logo</title><path d="M29.93,50.31a.87.87,0,0,1-.55-.24h0L5.57,26.26a6.46,6.46,0,0,1,0-9.13h0l5.56-5.55a6.45,6.45,0,0,1,9.12,0h0L43.49,34.81l9.75-9.74a4.77,4.77,0,0,0,.16-6.58l-.16-.17-5.56-5.55a4.77,4.77,0,0,0-6.58-.16l-.16.16L33.2,20A.84.84,0,0,1,32,20h0a.83.83,0,0,1-.07-1.1l.07-.09,7.74-7.18a6.43,6.43,0,0,1,8.94-.18l.18.18,5.56,5.55a6.45,6.45,0,0,1,.17,9l-.17.18L30.62,50.07a.84.84,0,0,1-.54.24ZM12.32,12.77,6.76,18.32a4.78,4.78,0,0,0,0,6.75h0L16.94,35.24l.1.07.09.08L30,48.26,42.28,36,19.06,12.77a4.76,4.76,0,0,0-6.57-.16h0Z"/></svg>