<svg width="170" height="41" viewBox="0 0 170 41" fill="none" xmlns="http://www.w3.org/2000/svg">
<path d="M122.023 8.18391L120.276 10.2989V15.7241H117.333V0H120.276V6.43678L125.517 0H129.103L124.138 6.16092L129.563 15.8161H126.253L122.023 8.18391Z" fill="black"/>
<path d="M130.666 3.12645H133.517V4.68967C134.344 3.58622 135.632 2.85059 137.287 2.85059C140.413 2.85059 142.252 4.87357 142.252 8.27587V15.8161H139.31V8.55174C139.31 6.6207 138.39 5.33334 136.459 5.33334C134.804 5.33334 133.517 6.52875 133.517 8.73564V15.6322H130.574V3.12645H130.666Z" fill="black"/>
<path d="M143.815 9.47128C143.815 5.79312 146.666 2.85059 150.344 2.85059C153.93 2.85059 156.873 5.79312 156.873 9.47128C156.873 13.1494 153.93 16 150.344 16C146.758 16 143.815 13.1494 143.815 9.47128ZM154.022 9.47128C154.022 7.35633 152.367 5.60921 150.344 5.60921C148.229 5.60921 146.666 7.35633 146.666 9.47128C146.666 11.5862 148.229 13.3333 150.344 13.3333C152.459 13.2414 154.022 11.5862 154.022 9.47128Z" fill="black"/>
<path d="M161.103 9.28738L156.505 3.12646H160.091L162.942 7.17244L165.793 3.12646H169.287L164.781 9.37934L169.655 15.8161H166.068L162.942 11.5862L159.907 15.8161H156.321L161.103 9.28738Z" fill="black"/>
<path d="M86.7128 12.2298H86.6209L83.2186 0.459717H77.6094V15.2643H81.2875L81.1036 3.12638H81.1956L84.8737 15.2643H90.2071V0.459717H86.5289L86.7128 12.2298Z" fill="black"/>
<path d="M15.9998 0.459717L13.2412 15.4482H17.2872L19.3102 1.83903H19.4021L21.4251 15.4482H25.4711L22.7125 0.459717H15.9998Z" fill="black"/>
<path d="M38.621 0.459717L36.7819 11.954H36.6899L34.8508 0.459717H28.7819L28.4141 15.4482H32.1842L32.2761 2.02294H32.3681L34.8508 15.4482H38.621L41.1957 2.02294L41.2876 15.4482H45.0577L44.7819 0.459717H38.621Z" fill="black"/>
<path d="M3.95402 4.32184C3.86207 4.04598 3.95402 3.67816 3.95402 3.58621C4.04598 3.12644 4.41379 2.57471 5.33333 2.57471C6.25287 2.57471 6.71264 3.12644 6.71264 3.95402C6.71264 4.22989 6.71264 4.87356 6.71264 4.87356H10.4828V3.77012C10.4828 0.551724 7.54023 0 5.42529 0C2.75862 0 0.551724 0.91954 0.183908 3.31035C0.091954 3.95402 0.091954 4.5977 0.183908 5.33333C0.827586 8.36782 6.16092 9.28736 6.89655 11.2184C7.08046 11.5862 6.98851 12.046 6.89655 12.3218C6.8046 12.7816 6.43678 13.3333 5.42529 13.3333C4.50575 13.3333 3.95402 12.7816 3.95402 11.954V10.4828H0V11.6782C0 14.9885 2.66667 16 5.42529 16C8.09195 16 10.3908 15.0805 10.7586 12.5977C10.9425 11.3103 10.8506 10.4828 10.7586 10.1149C10.1149 6.98851 4.41379 6.06897 3.95402 4.32184Z" fill="black"/>
<path d="M52.6894 4.32193C52.5974 4.04606 52.5974 3.67825 52.6894 3.58629C52.7813 3.12652 53.1491 2.5748 54.0687 2.5748C54.8963 2.5748 55.448 3.12652 55.448 3.95411C55.448 4.22997 55.448 4.87365 55.448 4.87365H59.1262V3.86216C59.1262 0.643765 56.1836 0.092041 54.1606 0.092041C51.494 0.092041 49.379 0.919627 49.0112 3.40239C48.9193 4.04606 48.9193 4.68974 49.0112 5.42537C49.6549 8.45986 54.8963 9.3794 55.7239 11.2185C55.9078 11.5863 55.8158 12.0461 55.7239 12.3219C55.6319 12.7817 55.2641 13.3334 54.2526 13.3334C53.3331 13.3334 52.7813 12.7817 52.7813 11.9541V10.4828H48.7354V11.5863C48.7354 14.8966 51.3101 15.9081 54.1606 15.9081C56.8273 15.9081 59.0342 14.9886 59.402 12.5058C59.5859 11.2185 59.494 10.3909 59.402 10.0231C58.7583 6.98859 53.0572 6.06905 52.6894 4.32193Z" fill="black"/>
<path d="M69.7009 11.5862C69.7009 11.7701 69.7009 11.954 69.7009 12.1379C69.609 12.5057 69.3331 13.2413 68.2297 13.2413C67.2182 13.2413 66.8503 12.5057 66.7584 12.1379C66.7584 11.954 66.7584 11.7701 66.7584 11.5862V0.551671H62.9883V11.3103C62.9883 11.5862 62.9883 12.1379 62.9883 12.3218C63.2641 15.0804 65.471 15.9999 68.2297 15.9999C70.9883 15.9999 73.1952 15.0804 73.471 12.3218C73.471 12.1379 73.471 11.5862 73.471 11.3103V0.459717H69.7009V11.5862Z" fill="black"/>
<path d="M99.4025 9.19549H100.966V11.4024C100.966 11.5863 100.966 11.7702 100.966 11.9541C100.874 12.3219 100.506 13.0576 99.4025 13.0576C98.2991 13.0576 97.9312 12.4139 97.8393 11.9541C97.8393 11.7702 97.8393 11.5863 97.8393 11.4024V4.50584C97.8393 4.22997 97.8393 3.95411 97.9312 3.7702C98.0232 3.40239 98.2991 2.66675 99.4025 2.66675C100.506 2.66675 100.874 3.40239 100.874 3.7702C100.874 3.95411 100.966 4.32193 100.966 4.32193V5.14951H104.736V4.7817C104.736 4.7817 104.736 4.22997 104.736 3.7702C104.46 0.919628 102.161 0.092041 99.4945 0.092041C96.8278 0.092041 94.5289 1.01158 94.2531 3.7702C94.2531 4.04607 94.1611 4.50584 94.1611 4.7817V11.0346C94.1611 11.3104 94.1611 11.4943 94.2531 12.0461C94.5289 14.8047 96.8278 15.7242 99.4945 15.7242C102.161 15.7242 104.552 14.7127 104.736 12.0461C104.736 11.5863 104.736 11.3104 104.828 11.0346V6.98859H99.4945V9.19549H99.4025Z" fill="black"/>
<path d="M0 24.7292H4.31558C5.64568 24.7292 6.83119 24.9316 7.87214 25.3364C8.91308 25.7412 9.78776 26.2978 10.4962 27.0062C11.2191 27.7146 11.7612 28.5532 12.1227 29.5218C12.4986 30.476 12.6865 31.517 12.6865 32.6447C12.6865 33.7724 12.4841 34.8205 12.0793 35.7892C11.6745 36.7578 11.1034 37.5964 10.3661 38.3048C9.64319 38.9988 8.77574 39.5482 7.76371 39.953C6.75168 40.3578 5.64568 40.5602 4.4457 40.5602H0V24.7292ZM2.94934 27.4616V37.8277H4.09872C4.96617 37.8277 5.74688 37.6976 6.44084 37.4374C7.1348 37.1771 7.72033 36.8157 8.19743 36.353C8.68899 35.8759 9.06489 35.3266 9.32512 34.7049C9.59982 34.0687 9.73716 33.382 9.73716 32.6447C9.73716 31.8929 9.61427 31.1989 9.36849 30.5628C9.13717 29.9267 8.78296 29.3773 8.30587 28.9146C7.82877 28.452 7.22878 28.0978 6.5059 27.852C5.78302 27.5918 4.93726 27.4616 3.9686 27.4616H2.94934Z" fill="black"/>
<path d="M20.373 40.8204C19.4621 40.8204 18.6019 40.6542 17.7923 40.3216C16.9971 39.9747 16.3032 39.5048 15.7104 38.912C15.1176 38.3048 14.6478 37.6036 14.3008 36.8085C13.9683 35.9988 13.802 35.1386 13.802 34.2278C13.802 33.3025 13.9683 32.4423 14.3008 31.6471C14.6478 30.8375 15.1176 30.1363 15.7104 29.5435C16.3032 28.9508 16.9971 28.4809 17.7923 28.1339C18.6019 27.7869 19.4621 27.6134 20.373 27.6134C21.2838 27.6134 22.1368 27.7869 22.9319 28.1339C23.7271 28.4809 24.4211 28.9508 25.0138 29.5435C25.621 30.1363 26.0909 30.8375 26.4234 31.6471C26.7704 32.4423 26.9439 33.3025 26.9439 34.2278C26.9439 35.1386 26.7704 35.9988 26.4234 36.8085C26.0909 37.6036 25.621 38.3048 25.0138 38.912C24.4211 39.5048 23.7271 39.9747 22.9319 40.3216C22.1368 40.6542 21.2838 40.8204 20.373 40.8204ZM20.373 38.0663C20.8934 38.0663 21.3778 37.9651 21.8259 37.7626C22.2741 37.5602 22.6645 37.2856 22.997 36.9386C23.3295 36.5916 23.5898 36.1868 23.7777 35.7241C23.9657 35.247 24.0596 34.7483 24.0596 34.2278C24.0596 33.6928 23.9657 33.1941 23.7777 32.7314C23.5898 32.2543 23.3295 31.8423 22.997 31.4953C22.6645 31.1483 22.2741 30.8736 21.8259 30.6712C21.3778 30.4688 20.8934 30.3676 20.373 30.3676C19.8525 30.3676 19.3609 30.4688 18.8983 30.6712C18.4501 30.8736 18.0597 31.1483 17.7272 31.4953C17.4092 31.8423 17.1561 32.2543 16.9682 32.7314C16.7803 33.1941 16.6863 33.6928 16.6863 34.2278C16.6863 34.7483 16.7803 35.247 16.9682 35.7241C17.1561 36.1868 17.4092 36.5916 17.7272 36.9386C18.0597 37.2856 18.4501 37.5602 18.8983 37.7626C19.3609 37.9651 19.8525 38.0663 20.373 38.0663Z" fill="black"/>
<path d="M34.7373 40.8204C33.812 40.8204 32.9445 40.6469 32.1349 40.2999C31.3397 39.953 30.6458 39.4831 30.053 38.8903C29.4603 38.2976 28.9904 37.6036 28.6434 36.8085C28.3109 35.9988 28.1446 35.1386 28.1446 34.2278C28.1446 33.3025 28.3109 32.4423 28.6434 31.6471C28.9904 30.8375 29.4603 30.1363 30.053 29.5435C30.6458 28.9363 31.3397 28.4664 32.1349 28.1339C32.9445 27.7869 33.812 27.6134 34.7373 27.6134C35.4457 27.6134 36.1107 27.7147 36.7324 27.9171C37.3685 28.105 37.9468 28.3725 38.4673 28.7195C38.9878 29.0664 39.4432 29.4785 39.8336 29.9556C40.2239 30.4327 40.542 30.9604 40.7878 31.5387L38.1637 32.6447C37.8746 31.9507 37.4264 31.4013 36.8192 30.9965C36.2264 30.5772 35.5397 30.3676 34.759 30.3676C34.224 30.3676 33.7252 30.4688 33.2626 30.6712C32.8144 30.8736 32.4168 31.1483 32.0698 31.4953C31.7373 31.8423 31.4771 32.2543 31.2891 32.7314C31.1012 33.1941 31.0072 33.6928 31.0072 34.2278C31.0072 34.7483 31.1012 35.247 31.2891 35.7241C31.4771 36.1868 31.7373 36.5916 32.0698 36.9386C32.4168 37.2856 32.8144 37.5602 33.2626 37.7626C33.7252 37.9651 34.2313 38.0663 34.7806 38.0663C35.6047 38.0663 36.3059 37.8494 36.8842 37.4157C37.477 36.9675 37.9179 36.3964 38.2071 35.7024L40.8311 36.8301C40.5853 37.4229 40.2673 37.9651 39.8769 38.4566C39.4866 38.9337 39.0312 39.353 38.5107 39.7144C38.0047 40.0614 37.4336 40.3361 36.7975 40.5385C36.1613 40.7264 35.4746 40.8204 34.7373 40.8204Z" fill="black"/>
<path d="M53.5868 40.5602H50.6808V39.1072C50.276 39.6421 49.77 40.0614 49.1627 40.365C48.5555 40.6686 47.8471 40.8204 47.0375 40.8204C46.2857 40.8204 45.6062 40.6975 44.999 40.4518C44.4062 40.206 43.893 39.8518 43.4592 39.3891C43.04 38.912 42.7147 38.341 42.4834 37.6759C42.2665 37.0109 42.1581 36.2518 42.1581 35.3988V27.8737H45.1291V35.0952C45.1291 36.0783 45.346 36.8591 45.7797 37.4374C46.2279 38.0012 46.9146 38.2831 47.8399 38.2831C48.6495 38.2831 49.3218 37.9867 49.8567 37.394C50.3916 36.8012 50.6591 35.9482 50.6591 34.835V27.8737H53.5868V40.5602Z" fill="black"/>
<path d="M55.6112 27.8737H58.5172V29.3484C58.922 28.8134 59.428 28.3942 60.0352 28.0905C60.6569 27.7725 61.3581 27.6134 62.1388 27.6134C63.1364 27.6134 63.9749 27.8086 64.6544 28.199C65.3484 28.5749 65.8833 29.1098 66.2592 29.8038C66.6929 29.1387 67.264 28.611 67.9724 28.2207C68.6953 27.8159 69.5121 27.6134 70.423 27.6134C72.129 27.6134 73.4157 28.0905 74.2831 29.0447C75.1506 29.9845 75.5843 31.2784 75.5843 32.9266V40.5602H72.5916V33.1651C72.5916 32.2399 72.3603 31.5098 71.8976 30.9748C71.435 30.4254 70.7483 30.1507 69.8374 30.1507C69.0423 30.1507 68.3772 30.4254 67.8423 30.9748C67.3074 31.5242 67.0399 32.3555 67.0399 33.4688V40.5602H64.0689V33.0784C64.0689 32.1676 63.8448 31.4519 63.3966 30.9315C62.9484 30.411 62.2834 30.1507 61.4015 30.1507C60.5774 30.1507 59.8906 30.4327 59.3413 30.9965C58.8063 31.5604 58.5389 32.4061 58.5389 33.5338V40.5602H55.6112V27.8737Z" fill="black"/>
<path d="M83.7611 40.8204C82.7635 40.8204 81.8527 40.6542 81.0286 40.3216C80.2045 39.9747 79.4961 39.5048 78.9033 38.912C78.325 38.3193 77.8696 37.6253 77.5371 36.8301C77.219 36.0205 77.06 35.1603 77.06 34.2495C77.06 33.3242 77.2263 32.4567 77.5588 31.6471C77.9058 30.8375 78.3756 30.1363 78.9684 29.5435C79.5612 28.9508 80.2551 28.4809 81.0503 28.1339C81.8599 27.7869 82.7274 27.6134 83.6526 27.6134C84.5924 27.6134 85.4598 27.7797 86.255 28.1122C87.0646 28.4303 87.7586 28.8857 88.3369 29.4785C88.9152 30.0568 89.3634 30.7435 89.6814 31.5387C90.014 32.3338 90.1802 33.2013 90.1802 34.141V35.247H79.8575C80.0599 36.1434 80.5009 36.8663 81.1804 37.4157C81.8599 37.9651 82.7201 38.2397 83.7611 38.2397C84.5852 38.2397 85.3008 38.0373 85.908 37.6325C86.5152 37.2277 86.9707 36.6856 87.2743 36.0061L89.6814 37.394C89.1321 38.4205 88.3586 39.2518 87.361 39.8879C86.3779 40.5096 85.1779 40.8204 83.7611 40.8204ZM83.6526 30.1941C82.7707 30.1941 82.0045 30.4327 81.3539 30.9098C80.7178 31.3869 80.2696 32.0158 80.0093 32.7965H87.2092C86.9923 31.9435 86.5731 31.3001 85.9514 30.8664C85.3297 30.4182 84.5635 30.1941 83.6526 30.1941Z" fill="black"/>
<path d="M91.7088 27.8737H94.6148V29.4351C95.034 28.8857 95.5617 28.4448 96.1979 28.1122C96.8484 27.7797 97.5858 27.6134 98.4099 27.6134C99.9857 27.6134 101.215 28.0905 102.097 29.0447C102.993 29.9989 103.441 31.329 103.441 33.035V40.5602H100.47V33.3386C100.47 32.3555 100.232 31.582 99.7544 31.0182C99.2773 30.4399 98.5617 30.1507 97.6075 30.1507C96.7689 30.1507 96.0605 30.4471 95.4822 31.0399C94.9184 31.6326 94.6364 32.4856 94.6364 33.5989V40.5602H91.7088V27.8737Z" fill="black"/>
<path d="M104.346 27.8737H106.515V25.9436L109.464 23.9268V27.8737H112.045V30.4977H109.464V35.247C109.464 35.7964 109.493 36.2446 109.551 36.5916C109.609 36.9241 109.725 37.1843 109.898 37.3723C110.086 37.5458 110.346 37.6614 110.679 37.7193C111.026 37.7771 111.481 37.806 112.045 37.806V40.5602H111.633C110.65 40.5602 109.826 40.4734 109.161 40.2999C108.51 40.1265 107.99 39.8373 107.599 39.4325C107.209 39.0132 106.927 38.4711 106.754 37.806C106.595 37.1265 106.515 36.2807 106.515 35.2687V30.4977H104.346V27.8737Z" fill="black"/>
<path d="M119.091 40.8204C118.324 40.8204 117.565 40.6758 116.814 40.3867C116.076 40.0831 115.411 39.6494 114.818 39.0855C114.226 38.5217 113.749 37.8349 113.387 37.0253C113.026 36.2012 112.845 35.2687 112.845 34.2278C112.845 33.1724 113.018 32.2399 113.365 31.4302C113.727 30.6062 114.197 29.9122 114.775 29.3484C115.368 28.7845 116.04 28.358 116.792 28.0689C117.544 27.7653 118.324 27.6134 119.134 27.6134C119.973 27.6134 120.746 27.7725 121.454 28.0905C122.163 28.4086 122.748 28.8423 123.211 29.3917V27.8737H126.139V40.5602H123.211V38.912C122.748 39.5048 122.156 39.9747 121.433 40.3216C120.71 40.6542 119.929 40.8204 119.091 40.8204ZM119.568 38.1313C120.103 38.1313 120.601 38.0301 121.064 37.8277C121.541 37.6253 121.946 37.3434 122.279 36.9819C122.611 36.6205 122.871 36.2012 123.059 35.7241C123.262 35.247 123.363 34.7338 123.363 34.1844C123.363 33.6495 123.262 33.1435 123.059 32.6664C122.871 32.1893 122.611 31.7772 122.279 31.4302C121.946 31.0688 121.541 30.7869 121.064 30.5845C120.601 30.3821 120.103 30.2809 119.568 30.2809C119.018 30.2809 118.512 30.3821 118.05 30.5845C117.587 30.7869 117.182 31.0616 116.835 31.4086C116.488 31.7555 116.214 32.1676 116.011 32.6447C115.823 33.1218 115.729 33.635 115.729 34.1844C115.729 34.7338 115.823 35.2543 116.011 35.7458C116.214 36.2229 116.488 36.6422 116.835 37.0036C117.182 37.3506 117.587 37.6253 118.05 37.8277C118.512 38.0301 119.018 38.1313 119.568 38.1313Z" fill="black"/>
<path d="M127.568 27.8737H129.736V25.9436L132.686 23.9268V27.8737H135.266V30.4977H132.686V35.247C132.686 35.7964 132.715 36.2446 132.773 36.5916C132.83 36.9241 132.946 37.1843 133.12 37.3723C133.307 37.5458 133.568 37.6614 133.9 37.7193C134.247 37.7771 134.703 37.806 135.266 37.806V40.5602H134.854C133.871 40.5602 133.047 40.4734 132.382 40.2999C131.732 40.1265 131.211 39.8373 130.821 39.4325C130.43 39.0132 130.148 38.4711 129.975 37.806C129.816 37.1265 129.736 36.2807 129.736 35.2687V30.4977H127.568V27.8737Z" fill="black"/>
<path d="M136.902 27.8737H139.851V40.5602H136.902V27.8737ZM136.533 24.7725C136.533 24.2231 136.7 23.7822 137.032 23.4497C137.365 23.1027 137.813 22.9292 138.377 22.9292C138.955 22.9292 139.403 23.1027 139.721 23.4497C140.054 23.7822 140.22 24.2231 140.22 24.7725C140.22 25.3219 140.054 25.7629 139.721 26.0954C139.403 26.4279 138.955 26.5942 138.377 26.5942C137.784 26.5942 137.328 26.4279 137.01 26.0954C136.692 25.7629 136.533 25.3219 136.533 24.7725Z" fill="black"/>
<path d="M147.916 40.8204C147.005 40.8204 146.145 40.6542 145.335 40.3216C144.54 39.9747 143.846 39.5048 143.253 38.912C142.66 38.3048 142.19 37.6036 141.844 36.8085C141.511 35.9988 141.345 35.1386 141.345 34.2278C141.345 33.3025 141.511 32.4423 141.844 31.6471C142.19 30.8375 142.66 30.1363 143.253 29.5435C143.846 28.9508 144.54 28.4809 145.335 28.1339C146.145 27.7869 147.005 27.6134 147.916 27.6134C148.827 27.6134 149.68 27.7869 150.475 28.1339C151.27 28.4809 151.964 28.9508 152.557 29.5435C153.164 30.1363 153.634 30.8375 153.966 31.6471C154.313 32.4423 154.487 33.3025 154.487 34.2278C154.487 35.1386 154.313 35.9988 153.966 36.8085C153.634 37.6036 153.164 38.3048 152.557 38.912C151.964 39.5048 151.27 39.9747 150.475 40.3216C149.68 40.6542 148.827 40.8204 147.916 40.8204ZM147.916 38.0663C148.436 38.0663 148.92 37.9651 149.369 37.7626C149.817 37.5602 150.207 37.2856 150.54 36.9386C150.872 36.5916 151.132 36.1868 151.32 35.7241C151.508 35.247 151.602 34.7483 151.602 34.2278C151.602 33.6928 151.508 33.1941 151.32 32.7314C151.132 32.2543 150.872 31.8423 150.54 31.4953C150.207 31.1483 149.817 30.8736 149.369 30.6712C148.92 30.4688 148.436 30.3676 147.916 30.3676C147.395 30.3676 146.904 30.4688 146.441 30.6712C145.993 30.8736 145.602 31.1483 145.27 31.4953C144.952 31.8423 144.699 32.2543 144.511 32.7314C144.323 33.1941 144.229 33.6928 144.229 34.2278C144.229 34.7483 144.323 35.247 144.511 35.7241C144.699 36.1868 144.952 36.5916 145.27 36.9386C145.602 37.2856 145.993 37.5602 146.441 37.7626C146.904 37.9651 147.395 38.0663 147.916 38.0663Z" fill="black"/>
<path d="M155.993 27.8737H158.899V29.4351C159.319 28.8857 159.846 28.4448 160.483 28.1122C161.133 27.7797 161.87 27.6134 162.695 27.6134C164.27 27.6134 165.499 28.0905 166.381 29.0447C167.278 29.9989 167.726 31.329 167.726 33.035V40.5602H164.755V33.3386C164.755 32.3555 164.516 31.582 164.039 31.0182C163.562 30.4399 162.846 30.1507 161.892 30.1507C161.054 30.1507 160.345 30.4471 159.767 31.0399C159.203 31.6326 158.921 32.4856 158.921 33.5989V40.5602H155.993V27.8737Z" fill="black"/>
</svg>
