<svg width="208" height="41" viewBox="0 0 127 25" fill="none" xmlns="http://www.w3.org/2000/svg">
<path d="M2.48082 2.70374C2.44256 2.54292 2.43929 2.37576 2.47124 2.21357C2.53476 1.91515 2.7373 1.58437 3.32574 1.58437C3.86865 1.59036 4.19343 1.92354 4.19343 2.42929V3.00695H6.52085V2.35379C6.52085 0.323586 4.6908 0 3.37128 0C1.71141 0 0.358341 0.550096 0.110259 2.06975C0.0343894 2.48604 0.0409042 2.91316 0.129434 3.32694C0.533317 5.2361 3.85067 5.78739 4.33245 6.99545C4.4062 7.21832 4.41287 7.45794 4.35163 7.68456C4.27493 7.99736 4.064 8.31496 3.4396 8.31496C2.85714 8.31496 2.50839 7.97459 2.50839 7.46524V6.56639H0V7.28547C0 9.372 1.6395 10 3.39286 10C5.0791 10 6.46453 9.42474 6.68984 7.86313C6.7715 7.35679 6.76826 6.84037 6.68025 6.33509C6.28595 4.3756 2.74688 3.79554 2.48082 2.70374ZM32.8344 2.72651C32.8014 2.56864 32.799 2.40592 32.8272 2.24712C32.8931 1.94871 33.0944 1.62272 33.6733 1.62272C34.2114 1.62272 34.5278 1.95829 34.5278 2.46165V3.02852H36.8265V2.38015C36.8265 0.369127 35.0288 0.0527323 33.7176 0.0527323C32.0745 0.0527323 30.7311 0.594439 30.4818 2.1081C30.4053 2.52 30.4126 2.94311 30.5034 3.35211C30.9108 5.23849 34.1958 5.785 34.6692 6.98346C34.7387 7.20546 34.7449 7.44244 34.6872 7.66778C34.6153 7.97819 34.4068 8.29099 33.7872 8.29099C33.2059 8.29099 32.8571 7.95662 32.8571 7.45206V6.55321H30.3823V7.2651C30.3823 9.32766 31.9978 9.95086 33.738 9.95086C35.4051 9.95086 36.7821 9.38039 37.0026 7.83677C37.0817 7.33486 37.0764 6.82328 36.9871 6.32311C36.6011 4.38878 33.0992 3.80633 32.8344 2.72651ZM54.028 7.8116L51.8301 0.297219H48.3665V9.5338H50.658L50.5249 1.77852L52.8859 9.5338H56.2069V0.297219H53.901L54.028 7.8116ZM9.99281 0.297219L8.26342 9.63087H10.7802L12.0877 0.991131L13.3593 9.63207H15.8629L14.1407 0.297219H9.99281ZM24.0904 0.297219L22.9123 7.59348L21.7354 0.297219H17.9279L17.7265 9.63087H20.0587L20.1222 0.989933L21.7258 9.63087H24.0928L25.6999 0.991131L25.7634 9.63207H28.1028L27.8931 0.298418L24.0904 0.297219ZM45.7826 0.297219H43.418V7.20158C43.4241 7.32181 43.4173 7.44235 43.3976 7.56112C43.3485 7.79362 43.152 8.23945 42.5 8.23945C41.848 8.23945 41.6611 7.79362 41.6107 7.56112C41.5885 7.44265 41.5805 7.32195 41.5868 7.20158V0.297219H39.2234V6.98346C39.2234 7.15484 39.2342 7.50719 39.2438 7.59947C39.4068 9.34324 40.7814 9.90892 42.4964 9.90892C44.2114 9.90892 45.5896 9.34324 45.755 7.59947C45.7746 7.39476 45.7814 7.18902 45.7754 6.98346L45.7826 0.297219ZM61.9859 4.39238V5.75264H62.9446V7.10331C62.9485 7.2237 62.9401 7.34417 62.9195 7.46285C62.8823 7.71572 62.6426 8.14358 61.9607 8.14358C61.2788 8.14358 61.051 7.71572 61.0103 7.46285C60.9927 7.34382 60.9843 7.22362 60.9851 7.10331V2.83797C60.9821 2.68977 60.9966 2.54174 61.0283 2.39693C61.0738 2.16922 61.2764 1.721 61.9559 1.721C62.675 1.721 62.8475 2.19439 62.8883 2.39693C62.907 2.51588 62.9166 2.63607 62.9171 2.75647V3.27421H65.2684V2.9686C65.2733 2.76269 65.2673 2.55667 65.2505 2.35139C65.0731 0.600431 63.6313 0.0467401 61.9763 0.0467401C60.3212 0.0467401 58.9058 0.605225 58.7009 2.35139C58.6817 2.51079 58.6529 2.79722 58.6529 2.9686V6.89238C58.6537 7.09825 58.6661 7.30392 58.6901 7.50839C58.8435 9.21021 60.32 9.81424 61.9703 9.81424C63.6206 9.81424 65.0959 9.215 65.2517 7.50839C65.2804 7.19559 65.2828 7.06376 65.2864 6.89238V4.39238H61.9859Z" fill="black"/>
<path d="M120.315 24.0156V16.7872H121.971V17.6769C122.453 17.0467 123.207 16.6389 124.133 16.6389C125.913 16.6389 127 17.8004 127 19.728V24.0156H125.307V19.901C125.307 18.7889 124.764 18.0846 123.676 18.0846C122.725 18.0846 121.983 18.7889 121.983 20.0493V24.0156H120.315Z" fill="black"/>
<path d="M115.836 24.1639C113.748 24.1639 112.092 22.4958 112.092 20.4076C112.092 18.307 113.748 16.6389 115.836 16.6389C117.912 16.6389 119.58 18.307 119.58 20.4076C119.58 22.4958 117.912 24.1639 115.836 24.1639ZM115.836 22.5946C117.01 22.5946 117.937 21.6061 117.937 20.4076C117.937 19.1967 117.01 18.2082 115.836 18.2082C114.638 18.2082 113.736 19.1967 113.736 20.4076C113.736 21.6061 114.638 22.5946 115.836 22.5946Z" fill="black"/>
<path d="M109.685 24.0156V16.7872H111.365V24.0156H109.685ZM109.475 15.0203C109.475 14.3901 109.882 13.97 110.525 13.97C111.18 13.97 111.575 14.3901 111.575 15.0203C111.575 15.6381 111.18 16.0582 110.525 16.0582C109.858 16.0582 109.475 15.6381 109.475 15.0203Z" fill="black"/>
<path d="M104.49 18.2823V16.7872H105.725V15.6875L107.406 14.5384V16.7872H108.876V18.2823H107.406V20.9883C107.406 22.2487 107.579 22.4464 108.876 22.4464V24.0156H108.642C106.405 24.0156 105.725 23.2989 105.725 21.0007V18.2823H104.49Z" fill="black"/>
<path d="M99.7834 24.1639C98.0412 24.1639 96.2249 22.7676 96.2249 20.4076C96.2249 18.0105 97.9794 16.6389 99.8082 16.6389C100.76 16.6389 101.612 17.0343 102.131 17.6522V16.7872H103.799V24.0156H102.131V23.0765C101.6 23.7438 100.735 24.1639 99.7834 24.1639ZM100.055 22.6317C101.291 22.6317 102.218 21.6309 102.218 20.3829C102.218 19.1596 101.291 18.1588 100.055 18.1588C98.8197 18.1588 97.8682 19.1349 97.8682 20.3829C97.8682 21.6432 98.8197 22.6317 100.055 22.6317Z" fill="black"/>
<path d="M91.5062 18.2823V16.7872H92.7418V15.6875L94.4223 14.5384V16.7872H95.8927V18.2823H94.4223V20.9883C94.4223 22.2487 94.5953 22.4464 95.8927 22.4464V24.0156H95.6579C93.4214 24.0156 92.7418 23.2989 92.7418 21.0007V18.2823H91.5062Z" fill="black"/>
<path d="M84.4292 24.0156V16.7872H86.0849V17.6769C86.5668 17.0467 87.3206 16.6389 88.2473 16.6389C90.0266 16.6389 91.1139 17.8004 91.1139 19.728V24.0156H89.4211V19.901C89.4211 18.7889 88.8774 18.0846 87.7901 18.0846C86.8387 18.0846 86.0973 18.7889 86.0973 20.0493V24.0156H84.4292Z" fill="black"/>
<path d="M80.0244 24.1639C77.7508 24.1639 76.2063 22.5081 76.2063 20.4199C76.2063 18.307 77.8497 16.6389 79.9626 16.6389C82.1126 16.6389 83.6818 18.2205 83.6818 20.3582V20.9883H77.8003C78.0227 22.0015 78.8382 22.6935 80.0244 22.6935C80.9511 22.6935 81.6801 22.1869 82.0261 21.4208L83.3976 22.2116C82.7674 23.3731 81.6307 24.1639 80.0244 24.1639ZM79.9626 18.1093C78.9617 18.1093 78.1833 18.7148 77.8867 19.5921H81.989C81.7419 18.6283 81.0005 18.1093 79.9626 18.1093Z" fill="black"/>
<path d="M64.1091 24.0156V16.7872H65.7648V17.6274C66.222 17.022 66.9386 16.6389 67.8283 16.6389C68.9527 16.6389 69.7435 17.1085 70.176 17.8869C70.6702 17.1332 71.5228 16.6389 72.5484 16.6389C74.4883 16.6389 75.4891 17.8004 75.4891 19.6662V24.0156H73.784V19.8021C73.784 18.7519 73.2403 18.0846 72.2147 18.0846C71.3127 18.0846 70.6208 18.7148 70.6208 19.9751V24.0156H68.928V19.7527C68.928 18.7271 68.409 18.0846 67.4082 18.0846C66.4691 18.0846 65.7772 18.7271 65.7772 20.0122V24.0156H64.1091Z" fill="black"/>
<path d="M63.0792 16.7872V24.0156H61.4234V23.1877C60.9663 23.7932 60.2619 24.1639 59.3476 24.1639C57.6424 24.1639 56.5674 23.0024 56.5674 21.0748V16.7872H58.2602V20.9018C58.2602 22.0139 58.7545 22.7182 59.8048 22.7182C60.7191 22.7182 61.4111 22.0139 61.4111 20.7535V16.7872H63.0792Z" fill="black"/>
<path d="M52.4628 24.1639C50.3499 24.1639 48.7065 22.4834 48.7065 20.4076C48.7065 18.2947 50.3623 16.6389 52.4628 16.6389C54.0815 16.6389 55.3542 17.5657 55.9102 18.8754L54.4151 19.5056C54.0815 18.7148 53.3525 18.2082 52.4752 18.2082C51.2519 18.2082 50.3376 19.1843 50.3376 20.4076C50.3376 21.6061 51.2519 22.5946 52.4875 22.5946C53.4143 22.5946 54.1186 22.0263 54.4398 21.2478L55.9349 21.8903C55.3665 23.2248 54.1433 24.1639 52.4628 24.1639Z" fill="black"/>
<path d="M44.4021 24.1639C42.3139 24.1639 40.6581 22.4958 40.6581 20.4076C40.6581 18.307 42.3139 16.6389 44.4021 16.6389C46.4779 16.6389 48.146 18.307 48.146 20.4076C48.146 22.4958 46.4779 24.1639 44.4021 24.1639ZM44.4021 22.5946C45.5759 22.5946 46.5026 21.6061 46.5026 20.4076C46.5026 19.1967 45.5759 18.2082 44.4021 18.2082C43.2035 18.2082 42.3015 19.1967 42.3015 20.4076C42.3015 21.6061 43.2035 22.5946 44.4021 22.5946Z" fill="black"/>
<path d="M32.9177 24.0156V14.9956H35.3766C38.4162 14.9956 40.1461 16.9479 40.1461 19.5056C40.1461 22.0757 38.1938 24.0156 35.4507 24.0156H32.9177ZM35.1789 16.5525H34.5982V22.4587H35.253C37.2177 22.4587 38.4657 21.186 38.4657 19.5056C38.4657 17.7757 37.403 16.5525 35.1789 16.5525Z" fill="black"/>
<path d="M21.8419 24.0156L24.5603 20.3334L21.9408 16.7872H23.9795L25.6229 19.0855L27.2539 16.7872H29.2309L26.6361 20.3581L29.4039 24.0156H27.3651L25.5982 21.6061L23.8807 24.0156H21.8419Z" fill="black"/>
<path d="M18.5192 24.1639C16.431 24.1639 14.7753 22.4958 14.7753 20.4076C14.7753 18.307 16.431 16.6389 18.5192 16.6389C20.595 16.6389 22.2631 18.307 22.2631 20.4076C22.2631 22.4958 20.595 24.1639 18.5192 24.1639ZM18.5192 22.5946C19.693 22.5946 20.6198 21.6061 20.6198 20.4076C20.6198 19.1967 19.693 18.2082 18.5192 18.2082C17.3206 18.2082 16.4186 19.1967 16.4186 20.4076C16.4186 21.6061 17.3206 22.5946 18.5192 22.5946Z" fill="black"/>
<path d="M7.3598 24.0156V16.7872H9.01553V17.6769C9.49743 17.0467 10.2512 16.6389 11.1779 16.6389C12.9572 16.6389 14.0445 17.8004 14.0445 19.728V24.0156H12.3517V19.901C12.3517 18.7889 11.808 18.0846 10.7207 18.0846C9.76926 18.0846 9.02789 18.7889 9.02789 20.0493V24.0156H7.3598Z" fill="black"/>
<path d="M5.04133 24.0156L2.65658 19.6786L1.68044 20.8895V24.0156H0V14.9956H1.68044V18.6901L4.65829 14.9956H6.69706L3.84278 18.5047L6.95654 24.0156H5.04133Z" fill="black"/>
</svg>
