<svg height="41" viewBox="0 0 131 25" fill="none" xmlns="http://www.w3.org/2000/svg">
<path d="M56.9555 8.69718C56.6849 9.05234 56.3382 9.3314 55.9154 9.53436C55.4926 9.73731 55.0317 9.83879 54.5328 9.83879C54.0846 9.83879 53.6406 9.75422 53.2009 9.5851C52.7696 9.40751 52.3806 9.15382 52.0339 8.82402C51.6872 8.49422 51.4082 8.09254 51.1967 7.61899C50.9853 7.13697 50.8796 6.59153 50.8796 5.98267C50.8796 5.36536 50.9811 4.81992 51.1841 4.34636C51.3955 3.86435 51.6703 3.45844 52.0086 3.12864C52.3553 2.79884 52.7485 2.54938 53.1882 2.38025C53.628 2.20267 54.0846 2.11388 54.5582 2.11388C55.0486 2.11388 55.501 2.21535 55.9154 2.41831C56.3298 2.6128 56.6723 2.87918 56.9429 3.21743V2.26609H58.6553V9.4963C58.6553 10.0206 58.5707 10.5111 58.4016 10.9677C58.2409 11.4244 57.9999 11.8218 57.6786 12.1601C57.3572 12.5068 56.9555 12.7774 56.4735 12.9719C56 13.1748 55.4503 13.2763 54.8245 13.2763C54.3425 13.2763 53.9028 13.2213 53.5053 13.1114C53.1163 13.0099 52.7654 12.8619 52.4525 12.6674C52.1396 12.4814 51.8648 12.2573 51.628 11.9952C51.3912 11.7415 51.1883 11.4582 51.0192 11.1453L52.5413 10.2193C52.6766 10.4646 52.8161 10.6802 52.9599 10.8662C53.1037 11.0523 53.2643 11.2045 53.4419 11.3229C53.628 11.4497 53.8351 11.5428 54.0635 11.6019C54.2918 11.6696 54.5539 11.7034 54.8499 11.7034C55.1712 11.7034 55.463 11.6442 55.7251 11.5258C55.9873 11.4074 56.2072 11.251 56.3847 11.0565C56.5708 10.862 56.7103 10.6337 56.8033 10.3715C56.9048 10.1094 56.9555 9.83879 56.9555 9.55973V8.69718ZM54.8118 8.2659C55.1247 8.2659 55.4165 8.20671 55.6871 8.08832C55.9661 7.96993 56.2029 7.80503 56.3974 7.59362C56.5919 7.38221 56.7441 7.13697 56.8541 6.85791C56.9725 6.57885 57.0317 6.27865 57.0317 5.95731C57.0317 5.64442 56.9725 5.34845 56.8541 5.06938C56.7441 4.79032 56.5919 4.54932 56.3974 4.34636C56.2029 4.13495 55.9661 3.97005 55.6871 3.85166C55.4165 3.73328 55.1247 3.67408 54.8118 3.67408C54.4905 3.67408 54.1945 3.73328 53.9239 3.85166C53.6533 3.97005 53.4165 4.13073 53.2136 4.33368C53.0106 4.53663 52.85 4.77764 52.7316 5.0567C52.6216 5.33576 52.5667 5.63596 52.5667 5.95731C52.5667 6.27865 52.6216 6.58308 52.7316 6.87059C52.85 7.14966 53.0106 7.39489 53.2136 7.6063C53.4165 7.80925 53.6533 7.96993 53.9239 8.08832C54.1945 8.20671 54.4905 8.2659 54.8118 8.2659Z" fill="black"/>
<path d="M43.2671 2.26609H44.9669V3.17938C45.2121 2.85804 45.5207 2.60012 45.8928 2.40562C46.2734 2.21113 46.7046 2.11388 47.1866 2.11388C48.1084 2.11388 48.8272 2.39294 49.343 2.95106C49.8673 3.50918 50.1295 4.28717 50.1295 5.28502V9.68657H48.3917V5.46261C48.3917 4.88757 48.2522 4.43516 47.9731 4.10536C47.694 3.7671 47.2754 3.59797 46.7173 3.59797C46.2269 3.59797 45.8125 3.77133 45.4742 4.11804C45.1444 4.46475 44.9795 4.96368 44.9795 5.61482V9.68657H43.2671V2.26609Z" fill="black"/>
<path d="M42.2098 9.68649H40.5101V8.83662C40.2733 9.14951 39.9773 9.39475 39.6222 9.57233C39.267 9.74991 38.8526 9.83871 38.3791 9.83871C37.9393 9.83871 37.5419 9.76683 37.1867 9.62307C36.84 9.47931 36.5398 9.27213 36.2861 9.00152C36.0409 8.72246 35.8506 8.38844 35.7153 7.99944C35.5885 7.61045 35.525 7.16649 35.525 6.66756V2.26601H37.2628V6.48997C37.2628 7.06501 37.3897 7.52166 37.6434 7.85991C37.9055 8.18971 38.3072 8.35461 38.8484 8.35461C39.322 8.35461 39.7152 8.18125 40.0281 7.83454C40.341 7.48783 40.4974 6.9889 40.4974 6.33776V2.26601H42.2098V9.68649Z" fill="black"/>
<path d="M31.8124 9.83879C30.9921 9.83879 30.3114 9.68658 29.7702 9.38215C29.229 9.06926 28.8104 8.62107 28.5144 8.03758L30.1 7.27651C30.2776 7.62322 30.5186 7.8896 30.823 8.07564C31.1274 8.26168 31.4826 8.3547 31.8885 8.3547C32.3113 8.3547 32.6285 8.2659 32.8399 8.08832C33.0513 7.91074 33.157 7.69933 33.157 7.45409C33.157 7.31879 33.1062 7.20886 33.0048 7.12429C32.9117 7.03973 32.7849 6.96785 32.6242 6.90865C32.472 6.841 32.2902 6.78604 32.0788 6.74375C31.8674 6.70147 31.6475 6.65496 31.4192 6.60422C31.0978 6.54503 30.7807 6.46892 30.4678 6.3759C30.1634 6.27442 29.8886 6.14335 29.6433 5.98268C29.3981 5.81355 29.1994 5.60214 29.0472 5.34845C28.895 5.0863 28.8188 4.76073 28.8188 4.37174C28.8188 4.07576 28.8865 3.79247 29.0218 3.52187C29.1571 3.24281 29.3516 2.99757 29.6053 2.78616C29.859 2.57475 30.1634 2.40985 30.5186 2.29146C30.8822 2.16462 31.2881 2.1012 31.7363 2.1012C32.4805 2.1012 33.0978 2.24073 33.5883 2.51979C34.0872 2.79039 34.4804 3.16247 34.7679 3.63603L33.3092 4.37174C33.157 4.10959 32.9456 3.90241 32.675 3.75019C32.4044 3.59798 32.0915 3.52187 31.7363 3.52187C31.3304 3.52187 31.0302 3.60221 30.8357 3.76288C30.6412 3.92355 30.544 4.10959 30.544 4.321C30.544 4.56623 30.6877 4.74382 30.9752 4.85375C31.2627 4.95523 31.6856 5.06516 32.2437 5.18355C32.5481 5.2512 32.8525 5.33154 33.157 5.42456C33.4699 5.51758 33.7532 5.64865 34.0068 5.81778C34.2605 5.97845 34.4635 6.18986 34.6157 6.45201C34.7764 6.7057 34.8567 7.02704 34.8567 7.41604C34.8567 7.67819 34.7975 7.95302 34.6791 8.24054C34.5607 8.5196 34.3747 8.78174 34.121 9.02698C33.8758 9.26376 33.5629 9.45826 33.1823 9.61047C32.8018 9.76269 32.3452 9.83879 31.8124 9.83879Z" fill="black"/>
<path d="M16.362 2.26609H18.0617V3.12864C18.2985 2.81576 18.5945 2.57052 18.9496 2.39294C19.3133 2.2069 19.7234 2.11388 20.18 2.11388C20.7635 2.11388 21.254 2.22804 21.6515 2.45636C22.0574 2.67623 22.3703 2.98911 22.5901 3.39502C22.8438 3.00603 23.1778 2.69737 23.5922 2.46905C24.015 2.23227 24.4928 2.11388 25.0256 2.11388C26.0234 2.11388 26.776 2.39294 27.2834 2.95106C27.7908 3.50072 28.0445 4.25757 28.0445 5.2216V9.68657H26.294V5.36113C26.294 4.81992 26.1587 4.39287 25.8881 4.07999C25.6175 3.75864 25.2158 3.59797 24.6831 3.59797C24.218 3.59797 23.829 3.75864 23.5161 4.07999C23.2032 4.40133 23.0468 4.88757 23.0468 5.53872V9.68657H21.309V5.31039C21.309 4.77764 21.1779 4.35905 20.9158 4.05462C20.6536 3.75019 20.2646 3.59797 19.7488 3.59797C19.2668 3.59797 18.8651 3.76287 18.5437 4.09267C18.2309 4.42247 18.0744 4.91717 18.0744 5.57677V9.68657H16.362V2.26609Z" fill="black"/>
<path d="M11.202 9.83879C10.7538 9.83879 10.3099 9.75423 9.87015 9.5851C9.43888 9.40751 9.04988 9.15382 8.70317 8.82402C8.35646 8.49422 8.0774 8.09254 7.86599 7.61899C7.65458 7.13697 7.54887 6.59154 7.54887 5.98267C7.54887 5.36536 7.65035 4.81992 7.8533 4.34636C8.06471 3.86435 8.33955 3.45844 8.6778 3.12864C9.02451 2.79884 9.41774 2.54938 9.85747 2.38025C10.2972 2.20267 10.7538 2.11388 11.2274 2.11388C11.7179 2.11388 12.1703 2.2069 12.5847 2.39294C12.999 2.57898 13.3415 2.83267 13.6121 3.15401V2.26609H15.3245V9.68657H13.6121V8.72255C13.3415 9.06926 12.9948 9.34409 12.572 9.54704C12.1492 9.74154 11.6925 9.83879 11.202 9.83879ZM11.4811 8.2659C11.794 8.2659 12.0857 8.20671 12.3563 8.08832C12.6354 7.96993 12.8722 7.80503 13.0667 7.59362C13.2612 7.38221 13.4134 7.13697 13.5233 6.85791C13.6417 6.57885 13.7009 6.27865 13.7009 5.95731C13.7009 5.64442 13.6417 5.34845 13.5233 5.06939C13.4134 4.79032 13.2612 4.54932 13.0667 4.34636C12.8722 4.13495 12.6354 3.97005 12.3563 3.85166C12.0857 3.73328 11.794 3.67408 11.4811 3.67408C11.1598 3.67408 10.8638 3.73328 10.5932 3.85166C10.3226 3.97005 10.0858 4.13073 9.88284 4.33368C9.67988 4.53663 9.51921 4.77764 9.40082 5.0567C9.29089 5.33576 9.23592 5.63596 9.23592 5.95731C9.23592 6.27865 9.29089 6.58308 9.40082 6.8706C9.51921 7.14966 9.67988 7.39489 9.88284 7.6063C10.0858 7.80926 10.3226 7.96993 10.5932 8.08832C10.8638 8.20671 11.1598 8.2659 11.4811 8.2659Z" fill="black"/>
<path d="M3.61511 9.81343C2.77792 9.81343 2.06759 9.65698 1.4841 9.3441C0.909062 9.02275 0.414363 8.6253 0 8.15175L1.57289 6.90866C1.80967 7.31456 2.10141 7.62745 2.44812 7.84732C2.79484 8.05873 3.1796 8.16443 3.60242 8.16443C3.83074 8.16443 4.02947 8.1306 4.1986 8.06295C4.37618 7.9953 4.52417 7.90651 4.64256 7.79658C4.7694 7.67819 4.86242 7.54289 4.92162 7.39067C4.98081 7.23846 5.01041 7.08201 5.01041 6.92134C5.01041 6.72684 4.95544 6.56194 4.84551 6.42664C4.73558 6.29134 4.59182 6.17718 4.41424 6.08416C4.23665 5.98268 4.02947 5.89389 3.79269 5.81778C3.56437 5.74167 3.32759 5.66557 3.08235 5.58946C2.76947 5.48798 2.45658 5.37805 2.14369 5.25966C1.83081 5.14127 1.54752 4.98483 1.29383 4.79033C1.04859 4.58738 0.845639 4.34214 0.684968 4.05462C0.532753 3.75865 0.456645 3.3908 0.456645 2.95107C0.456645 2.57898 0.532753 2.23227 0.684968 1.91093C0.837183 1.58959 1.04859 1.31053 1.3192 1.07375C1.59826 0.828512 1.92383 0.638243 2.29591 0.502941C2.66799 0.367639 3.07813 0.299988 3.52631 0.299988C3.8984 0.299988 4.23242 0.333813 4.5284 0.401464C4.83283 0.469115 5.10766 0.562136 5.3529 0.680525C5.60659 0.798914 5.83491 0.942673 6.03786 1.1118C6.24927 1.27247 6.448 1.45006 6.63404 1.64455L5.21336 2.72274C4.81591 2.1308 4.25779 1.83482 3.539 1.83482C3.11618 1.83482 2.79484 1.9363 2.57497 2.13925C2.3551 2.34221 2.24517 2.59167 2.24517 2.88764C2.24517 3.07368 2.29591 3.23013 2.39739 3.35697C2.49886 3.48382 2.63417 3.59798 2.80329 3.69946C2.98088 3.79248 3.18383 3.87704 3.41215 3.95315C3.64048 4.02926 3.88148 4.10959 4.13517 4.19416C4.44806 4.29563 4.76095 4.41402 5.07383 4.54932C5.39518 4.67617 5.68269 4.8453 5.93639 5.05671C6.19853 5.25966 6.40994 5.51335 6.57061 5.81778C6.73129 6.12221 6.81162 6.49429 6.81162 6.93403C6.81162 7.29765 6.73974 7.65282 6.59598 7.99953C6.45223 8.34624 6.24504 8.6549 5.97444 8.92551C5.70384 9.18765 5.36981 9.40329 4.97236 9.57242C4.57491 9.73309 4.12249 9.81343 3.61511 9.81343Z" fill="black"/>
<path d="M123.546 16.7253H125.246V17.6388C125.491 17.3174 125.8 17.0594 126.172 16.8648C126.553 16.6703 126.984 16.573 127.466 16.573C128.388 16.573 129.107 16.8522 129.623 17.4104C130.148 17.9687 130.41 18.7469 130.41 19.745V24.1477H128.671V19.9226C128.671 19.3475 128.532 18.8949 128.253 18.565C127.974 18.2267 127.555 18.0575 126.997 18.0575C126.506 18.0575 126.092 18.2309 125.753 18.5777C125.423 18.9245 125.258 19.4236 125.258 20.0749V24.1477H123.546V16.7253Z" fill="black"/>
<path d="M118.946 24.3C118.413 24.3 117.91 24.2027 117.436 24.0082C116.971 23.8052 116.565 23.5303 116.218 23.1834C115.872 22.8282 115.597 22.4179 115.394 21.9527C115.199 21.479 115.102 20.9757 115.102 20.4428C115.102 19.9015 115.199 19.3982 115.394 18.933C115.597 18.4593 115.872 18.0491 116.218 17.7023C116.565 17.3554 116.971 17.0805 117.436 16.8775C117.91 16.6745 118.413 16.573 118.946 16.573C119.479 16.573 119.978 16.6745 120.444 16.8775C120.909 17.0805 121.315 17.3554 121.662 17.7023C122.017 18.0491 122.292 18.4593 122.486 18.933C122.689 19.3982 122.791 19.9015 122.791 20.4428C122.791 20.9757 122.689 21.479 122.486 21.9527C122.292 22.4179 122.017 22.8282 121.662 23.1834C121.315 23.5303 120.909 23.8052 120.444 24.0082C119.978 24.2027 119.479 24.3 118.946 24.3ZM118.946 22.6886C119.251 22.6886 119.534 22.6294 119.796 22.511C120.059 22.3926 120.287 22.2318 120.482 22.0288C120.676 21.8258 120.828 21.589 120.938 21.3183C121.048 21.0392 121.103 20.7474 121.103 20.4428C121.103 20.1299 121.048 19.8381 120.938 19.5674C120.828 19.2882 120.676 19.0472 120.482 18.8442C120.287 18.6412 120.059 18.4804 119.796 18.362C119.534 18.2436 119.251 18.1844 118.946 18.1844C118.642 18.1844 118.354 18.2436 118.084 18.362C117.821 18.4804 117.593 18.6412 117.398 18.8442C117.212 19.0472 117.064 19.2882 116.954 19.5674C116.844 19.8381 116.789 20.1299 116.789 20.4428C116.789 20.7474 116.844 21.0392 116.954 21.3183C117.064 21.589 117.212 21.8258 117.398 22.0288C117.593 22.2318 117.821 22.3926 118.084 22.511C118.354 22.6294 118.642 22.6886 118.946 22.6886Z" fill="black"/>
<path d="M112.629 16.7253H114.355V24.1477H112.629V16.7253ZM112.414 14.9109C112.414 14.5895 112.511 14.3315 112.706 14.1369C112.9 13.9339 113.162 13.8324 113.492 13.8324C113.831 13.8324 114.093 13.9339 114.279 14.1369C114.473 14.3315 114.571 14.5895 114.571 14.9109C114.571 15.2323 114.473 15.4903 114.279 15.6849C114.093 15.8794 113.831 15.9767 113.492 15.9767C113.145 15.9767 112.879 15.8794 112.693 15.6849C112.507 15.4903 112.414 15.2323 112.414 14.9109Z" fill="black"/>
<path d="M107.295 16.7253H108.564V15.5961L110.29 14.4161V16.7253H111.799V18.2605H110.29V21.0392C110.29 21.3606 110.307 21.6228 110.34 21.8258C110.374 22.0204 110.442 22.1726 110.543 22.2826C110.653 22.3841 110.806 22.4518 111 22.4856C111.203 22.5194 111.47 22.5364 111.799 22.5364V24.1477H111.558C110.983 24.1477 110.501 24.097 110.112 23.9955C109.731 23.894 109.427 23.7248 109.198 23.488C108.97 23.2427 108.805 22.9255 108.704 22.5364C108.611 22.1388 108.564 21.644 108.564 21.0519V18.2605H107.295V16.7253Z" fill="black"/>
<path d="M102.462 24.3C102.014 24.3 101.57 24.2154 101.13 24.0462C100.699 23.8686 100.31 23.6148 99.9629 23.285C99.6161 22.9551 99.337 22.5533 99.1255 22.0796C98.914 21.5975 98.8083 21.0519 98.8083 20.4428C98.8083 19.8254 98.9098 19.2798 99.1128 18.8061C99.3243 18.324 99.5992 17.9179 99.9375 17.5881C100.284 17.2582 100.678 17.0086 101.118 16.8395C101.557 16.6618 102.014 16.573 102.488 16.573C102.978 16.573 103.431 16.6661 103.845 16.8522C104.26 17.0382 104.602 17.292 104.873 17.6134V16.7253H106.586V24.1477H104.873V23.1834C104.602 23.5303 104.256 23.8052 103.833 24.0082C103.41 24.2027 102.953 24.3 102.462 24.3ZM102.742 22.7267C103.055 22.7267 103.346 22.6675 103.617 22.549C103.896 22.4306 104.133 22.2657 104.328 22.0542C104.522 21.8428 104.674 21.5975 104.784 21.3183C104.903 21.0392 104.962 20.7389 104.962 20.4175C104.962 20.1045 104.903 19.8085 104.784 19.5293C104.674 19.2502 104.522 19.0091 104.328 18.8061C104.133 18.5946 103.896 18.4297 103.617 18.3113C103.346 18.1929 103.055 18.1336 102.742 18.1336C102.42 18.1336 102.124 18.1929 101.853 18.3113C101.583 18.4297 101.346 18.5904 101.143 18.7934C100.94 18.9964 100.779 19.2375 100.661 19.5166C100.551 19.7958 100.496 20.096 100.496 20.4175C100.496 20.7389 100.551 21.0434 100.661 21.331C100.779 21.6101 100.94 21.8554 101.143 22.0669C101.346 22.2699 101.583 22.4306 101.853 22.549C102.124 22.6675 102.42 22.7267 102.742 22.7267Z" fill="black"/>
<path d="M93.963 16.7253H95.2318V15.5961L96.9574 14.4161V16.7253H98.4672V18.2605H96.9574V21.0392C96.9574 21.3606 96.9743 21.6228 97.0081 21.8258C97.0419 22.0204 97.1096 22.1726 97.2111 22.2826C97.3211 22.3841 97.4733 22.4518 97.6679 22.4856C97.8709 22.5194 98.1373 22.5364 98.4672 22.5364V24.1477H98.2261C97.6509 24.1477 97.1688 24.097 96.7797 23.9955C96.3991 23.894 96.0946 23.7248 95.8662 23.488C95.6378 23.2427 95.4729 22.9255 95.3714 22.5364C95.2783 22.1388 95.2318 21.644 95.2318 21.0519V18.2605H93.963V16.7253Z" fill="black"/>
<path d="M86.696 16.7253H88.3962V17.6388C88.6415 17.3174 88.9502 17.0594 89.3224 16.8648C89.703 16.6703 90.1344 16.573 90.6165 16.573C91.5385 16.573 92.2575 16.8522 92.7735 17.4104C93.2979 17.9687 93.5602 18.7469 93.5602 19.745V24.1477H91.8219V19.9226C91.8219 19.3475 91.6823 18.8949 91.4032 18.565C91.1241 18.2267 90.7054 18.0575 90.1471 18.0575C89.6565 18.0575 89.242 18.2309 88.9037 18.5777C88.5738 18.9245 88.4088 19.4236 88.4088 20.0749V24.1477H86.696V16.7253Z" fill="black"/>
<path d="M82.1729 24.3C81.5893 24.3 81.0564 24.2027 80.5742 24.0082C80.0921 23.8052 79.6776 23.5303 79.3308 23.1834C78.9925 22.8366 78.726 22.4306 78.5315 21.9654C78.3454 21.4917 78.2523 20.9884 78.2523 20.4555C78.2523 19.9142 78.3496 19.4067 78.5442 18.933C78.7472 18.4593 79.0221 18.0491 79.3689 17.7023C79.7157 17.3554 80.1217 17.0805 80.5869 16.8775C81.0606 16.6745 81.5681 16.573 82.1095 16.573C82.6593 16.573 83.1668 16.6703 83.632 16.8648C84.1057 17.0509 84.5117 17.3174 84.8501 17.6642C85.1884 18.0025 85.4506 18.4043 85.6367 18.8695C85.8313 19.3348 85.9286 19.8423 85.9286 20.3921V21.0392H79.8891C80.0075 21.5636 80.2655 21.9865 80.663 22.308C81.0606 22.6294 81.5639 22.7901 82.1729 22.7901C82.6551 22.7901 83.0738 22.6717 83.429 22.4349C83.7843 22.198 84.0507 21.8808 84.2284 21.4833L85.6367 22.2953C85.3153 22.8959 84.8628 23.3822 84.2791 23.7544C83.7039 24.1181 83.0019 24.3 82.1729 24.3ZM82.1095 18.0829C81.5935 18.0829 81.1452 18.2225 80.7646 18.5016C80.3924 18.7807 80.1302 19.1487 79.9779 19.6054H84.1903C84.0634 19.1064 83.8181 18.73 83.4544 18.4762C83.0907 18.214 82.6424 18.0829 82.1095 18.0829Z" fill="black"/>
<path d="M65.8302 16.7253H67.5304V17.5881C67.7673 17.2751 68.0633 17.0298 68.4186 16.8522C68.7823 16.6661 69.1926 16.573 69.6493 16.573C70.233 16.573 70.7236 16.6872 71.1211 16.9156C71.5271 17.1355 71.8401 17.4485 72.06 17.8545C72.3138 17.4654 72.6479 17.1567 73.0624 16.9283C73.4853 16.6914 73.9632 16.573 74.4961 16.573C75.4942 16.573 76.2471 16.8522 76.7546 17.4104C77.2621 17.9602 77.5158 18.7173 77.5158 19.6816V24.1477H75.7649V19.8211C75.7649 19.2798 75.6296 18.8526 75.3589 18.5397C75.0882 18.2182 74.6864 18.0575 74.1535 18.0575C73.6883 18.0575 73.2992 18.2182 72.9863 18.5397C72.6733 18.8611 72.5168 19.3475 72.5168 19.9988V24.1477H70.7785V19.7704C70.7785 19.2375 70.6474 18.8188 70.3852 18.5143C70.123 18.2098 69.7339 18.0575 69.2179 18.0575C68.7358 18.0575 68.334 18.2225 68.0126 18.5523C67.6996 18.8822 67.5431 19.3771 67.5431 20.0368V24.1477H65.8302V16.7253Z" fill="black"/>
<path d="M64.7727 24.1477H63.0725V23.2976C62.8357 23.6106 62.5396 23.8559 62.1843 24.0335C61.8291 24.2112 61.4146 24.3 60.9409 24.3C60.5011 24.3 60.1035 24.2281 59.7483 24.0843C59.4014 23.9405 59.1012 23.7333 58.8474 23.4626C58.6021 23.1834 58.4118 22.8493 58.2765 22.4602C58.1496 22.0711 58.0861 21.6271 58.0861 21.128V16.7253H59.8244V20.9504C59.8244 21.5256 59.9513 21.9823 60.205 22.3207C60.4672 22.6506 60.869 22.8155 61.4104 22.8155C61.8841 22.8155 62.2774 22.6421 62.5904 22.2953C62.9033 21.9485 63.0598 21.4494 63.0598 20.7981V16.7253H64.7727V24.1477Z" fill="black"/>
<path d="M53.8714 24.3C53.33 24.3 52.8225 24.1985 52.3488 23.9955C51.8836 23.7925 51.4776 23.5176 51.1308 23.1708C50.784 22.824 50.509 22.4179 50.306 21.9527C50.1115 21.479 50.0142 20.9757 50.0142 20.4428C50.0142 19.9015 50.1115 19.3982 50.306 18.933C50.509 18.4593 50.784 18.0491 51.1308 17.7023C51.4776 17.347 51.8836 17.0721 52.3488 16.8775C52.8225 16.6745 53.33 16.573 53.8714 16.573C54.2858 16.573 54.6749 16.6322 55.0386 16.7507C55.4108 16.8606 55.7492 17.0171 56.0537 17.2201C56.3582 17.4231 56.6246 17.6642 56.853 17.9433C57.0814 18.2225 57.2675 18.5312 57.4113 18.8695L55.8761 19.5166C55.7069 19.1106 55.4447 18.7892 55.0894 18.5523C54.7426 18.307 54.3408 18.1844 53.884 18.1844C53.5711 18.1844 53.2793 18.2436 53.0086 18.362C52.7464 18.4804 52.5137 18.6412 52.3107 18.8442C52.1162 19.0472 51.9639 19.2882 51.854 19.5674C51.744 19.8381 51.689 20.1299 51.689 20.4428C51.689 20.7474 51.744 21.0392 51.854 21.3183C51.9639 21.589 52.1162 21.8258 52.3107 22.0288C52.5137 22.2318 52.7464 22.3926 53.0086 22.511C53.2793 22.6294 53.5753 22.6886 53.8967 22.6886C54.3789 22.6886 54.7891 22.5617 55.1275 22.308C55.4743 22.0458 55.7323 21.7116 55.9014 21.3056L57.4367 21.9654C57.2929 22.3122 57.1068 22.6294 56.8784 22.917C56.65 23.1961 56.3836 23.4414 56.0791 23.6529C55.783 23.8559 55.4489 24.0166 55.0767 24.135C54.7045 24.245 54.3027 24.3 53.8714 24.3Z" fill="black"/>
<path d="M45.5941 24.3C45.0613 24.3 44.558 24.2027 44.0843 24.0082C43.6191 23.8052 43.213 23.5303 42.8662 23.1834C42.5194 22.8282 42.2445 22.4179 42.0415 21.9527C41.847 21.479 41.7497 20.9757 41.7497 20.4428C41.7497 19.9015 41.847 19.3982 42.0415 18.933C42.2445 18.4593 42.5194 18.0491 42.8662 17.7023C43.213 17.3554 43.6191 17.0805 44.0843 16.8775C44.558 16.6745 45.0613 16.573 45.5941 16.573C46.127 16.573 46.6261 16.6745 47.0913 16.8775C47.5566 17.0805 47.9626 17.3554 48.3094 17.7023C48.6646 18.0491 48.9395 18.4593 49.1341 18.933C49.3371 19.3982 49.4386 19.9015 49.4386 20.4428C49.4386 20.9757 49.3371 21.479 49.1341 21.9527C48.9395 22.4179 48.6646 22.8282 48.3094 23.1834C47.9626 23.5303 47.5566 23.8052 47.0913 24.0082C46.6261 24.2027 46.127 24.3 45.5941 24.3ZM45.5941 22.6886C45.8987 22.6886 46.182 22.6294 46.4442 22.511C46.7065 22.3926 46.9348 22.2318 47.1294 22.0288C47.3239 21.8258 47.4762 21.589 47.5862 21.3183C47.6961 21.0392 47.7511 20.7474 47.7511 20.4428C47.7511 20.1299 47.6961 19.8381 47.5862 19.5674C47.4762 19.2882 47.3239 19.0472 47.1294 18.8442C46.9348 18.6412 46.7065 18.4804 46.4442 18.362C46.182 18.2436 45.8987 18.1844 45.5941 18.1844C45.2896 18.1844 45.002 18.2436 44.7314 18.362C44.4692 18.4804 44.2408 18.6412 44.0462 18.8442C43.8601 19.0472 43.7121 19.2882 43.6021 19.5674C43.4922 19.8381 43.4372 20.1299 43.4372 20.4428C43.4372 20.7474 43.4922 21.0392 43.6021 21.3183C43.7121 21.589 43.8601 21.8258 44.0462 22.0288C44.2408 22.2318 44.4692 22.3926 44.7314 22.511C45.002 22.6294 45.2896 22.6886 45.5941 22.6886Z" fill="black"/>
<path d="M33.8015 14.8855H36.3264C37.1046 14.8855 37.7982 15.0039 38.4072 15.2408C39.0162 15.4776 39.528 15.8033 39.9425 16.2178C40.3654 16.6322 40.6826 17.1228 40.8941 17.6896C41.114 18.2478 41.2239 18.8569 41.2239 19.5166C41.2239 20.1764 41.1055 20.7897 40.8687 21.3564C40.6318 21.9231 40.2977 22.4137 39.8663 22.8282C39.4434 23.2342 38.9359 23.5556 38.3438 23.7925C37.7517 24.0293 37.1046 24.1477 36.4025 24.1477H33.8015V14.8855ZM35.5271 16.4842V22.549H36.1995C36.707 22.549 37.1638 22.4729 37.5698 22.3207C37.9758 22.1684 38.3184 21.9569 38.5975 21.6863C38.8851 21.4071 39.1051 21.0857 39.2573 20.722C39.418 20.3498 39.4984 19.948 39.4984 19.5166C39.4984 19.0768 39.4265 18.6708 39.2827 18.2986C39.1474 17.9264 38.9401 17.605 38.661 17.3343C38.3818 17.0636 38.0308 16.8564 37.6079 16.7126C37.1849 16.5603 36.6901 16.4842 36.1234 16.4842H35.5271Z" fill="black"/>
<path d="M25.2197 20.3667L22.5298 16.7253H24.6233L26.3108 19.0852L27.9857 16.7253H30.0157L27.3513 20.3921L30.1934 24.1477H28.0998L26.2855 21.6736L24.5218 24.1477H22.4283L25.2197 20.3667Z" fill="black"/>
<path d="M19.0164 24.3C18.4835 24.3 17.9802 24.2027 17.5065 24.0082C17.0413 23.8052 16.6353 23.5303 16.2885 23.1834C15.9416 22.8282 15.6667 22.4179 15.4637 21.9527C15.2692 21.479 15.1719 20.9757 15.1719 20.4428C15.1719 19.9015 15.2692 19.3982 15.4637 18.933C15.6667 18.4593 15.9416 18.0491 16.2885 17.7023C16.6353 17.3554 17.0413 17.0805 17.5065 16.8775C17.9802 16.6745 18.4835 16.573 19.0164 16.573C19.5493 16.573 20.0483 16.6745 20.5135 16.8775C20.9788 17.0805 21.3848 17.3554 21.7316 17.7023C22.0868 18.0491 22.3618 18.4593 22.5563 18.933C22.7593 19.3982 22.8608 19.9015 22.8608 20.4428C22.8608 20.9757 22.7593 21.479 22.5563 21.9527C22.3618 22.4179 22.0868 22.8282 21.7316 23.1834C21.3848 23.5303 20.9788 23.8052 20.5135 24.0082C20.0483 24.2027 19.5493 24.3 19.0164 24.3ZM19.0164 22.6886C19.3209 22.6886 19.6042 22.6294 19.8665 22.511C20.1287 22.3926 20.3571 22.2318 20.5516 22.0288C20.7462 21.8258 20.8984 21.589 21.0084 21.3183C21.1183 21.0392 21.1733 20.7474 21.1733 20.4428C21.1733 20.1299 21.1183 19.8381 21.0084 19.5674C20.8984 19.2882 20.7462 19.0472 20.5516 18.8442C20.3571 18.6412 20.1287 18.4804 19.8665 18.362C19.6042 18.2436 19.3209 18.1844 19.0164 18.1844C18.7119 18.1844 18.4243 18.2436 18.1536 18.362C17.8914 18.4804 17.663 18.6412 17.4684 18.8442C17.2823 19.0472 17.1343 19.2882 17.0244 19.5674C16.9144 19.8381 16.8594 20.1299 16.8594 20.4428C16.8594 20.7474 16.9144 21.0392 17.0244 21.3183C17.1343 21.589 17.2823 21.8258 17.4684 22.0288C17.663 22.2318 17.8914 22.3926 18.1536 22.511C18.4243 22.6294 18.7119 22.6886 19.0164 22.6886Z" fill="black"/>
<path d="M7.55736 16.7253H9.25754V17.6388C9.50284 17.3174 9.81159 17.0594 10.1838 16.8648C10.5644 16.6703 10.9958 16.573 11.4779 16.573C12.3999 16.573 13.1189 16.8522 13.6349 17.4104C14.1593 17.9687 14.4215 18.7469 14.4215 19.745V24.1477H12.6833V19.9226C12.6833 19.3475 12.5437 18.8949 12.2646 18.565C11.9855 18.2267 11.5668 18.0575 11.0085 18.0575C10.5179 18.0575 10.1034 18.2309 9.76506 18.5777C9.43518 18.9245 9.27023 19.4236 9.27023 20.0749V24.1477H7.55736V16.7253Z" fill="black"/>
<path d="M2.72791 19.6943L1.72556 20.9377V24.1477H0V14.8855H1.72556V18.6792L4.78336 14.8855H6.87687L3.94595 18.4889L7.14332 24.1477H5.17668L2.72791 19.6943Z" fill="black"/>
</svg>
