<?xml version="1.0" standalone="no"?>
<!DOCTYPE svg PUBLIC "-//W3C//DTD SVG 20010904//EN"
 "http://www.w3.org/TR/2001/REC-SVG-20010904/DTD/svg10.dtd">
<svg version="1.0" xmlns="http://www.w3.org/2000/svg"
 width="225.000000pt" height="225.000000pt" viewBox="0 0 225.000000 225.000000"
 preserveAspectRatio="xMidYMid meet">

<g transform="translate(0.000000,225.000000) scale(0.100000,-0.100000)"
fill="#000000" stroke="none">
<path d="M978 2007 l-128 -41 0 -96 0 -96 -87 -28 c-49 -16 -94 -31 -100 -33
-10 -4 -13 18 -13 92 0 73 -3 96 -12 93 -7 -3 -81 -26 -165 -53 l-152 -48 -7
-66 c-4 -36 -4 -120 -1 -186 7 -121 41 -343 56 -358 5 -5 177 45 384 111 l375
120 349 -111 c191 -61 350 -112 352 -114 12 -8 -70 -257 -87 -266 -4 -2 -144
39 -311 92 l-304 97 -333 -105 -332 -105 35 -70 c30 -60 115 -192 167 -258 12
-17 27 -13 233 52 121 39 226 70 233 70 7 0 98 -27 202 -61 l191 -61 -84 -84
c-82 -82 -221 -190 -286 -222 -31 -15 -32 -15 -116 42 -47 31 -92 56 -100 56
-25 0 -27 -27 -4 -48 38 -34 179 -122 197 -122 30 0 222 135 312 219 87 82
174 178 167 186 -2 2 -111 38 -242 80 l-237 76 -207 -66 c-113 -36 -212 -65
-219 -65 -20 0 -176 235 -163 244 2 1 135 43 295 94 l291 91 314 -99 c173 -55
319 -100 325 -100 7 0 14 8 17 18 3 9 19 51 37 92 34 81 85 249 77 256 -7 7
-754 244 -770 244 -8 0 -171 -50 -362 -111 -191 -61 -351 -107 -355 -102 -23
25 -50 304 -42 429 l4 71 102 32 c55 17 104 31 109 31 4 0 7 -40 7 -90 0 -58
4 -90 11 -90 6 0 76 21 155 46 l144 46 0 96 0 97 115 36 114 36 113 -36 113
-37 3 -97 3 -97 143 -45 c78 -25 146 -45 149 -45 4 0 7 41 7 90 0 106 -8 103
130 57 l95 -32 3 -108 c3 -105 3 -108 25 -105 21 3 22 8 25 129 l3 125 -150
47 c-82 26 -156 50 -165 53 -14 5 -16 -7 -16 -91 0 -74 -3 -96 -12 -92 -7 2
-52 16 -100 31 l-88 27 0 97 0 97 -137 43 c-76 23 -145 42 -153 41 -8 -1 -72
-20 -142 -42z"/>
</g>
</svg>
