<?xml version="1.0" encoding="utf-8"?>
<!-- Generator: Adobe Illustrator 22.0.1, SVG Export Plug-In . SVG Version: 6.00 Build 0)  -->
<svg version="1.1" xmlns="http://www.w3.org/2000/svg" xmlns:xlink="http://www.w3.org/1999/xlink" x="0px" y="0px"
	 viewBox="0 0 603 175" style="enable-background:new 0 0 603 175;" xml:space="preserve">
<g id="Layer_1">
</g>
<g id="Layer_2">
	<g>
		<g>
			<g>
				<g>
					<g>
						<polygon points="459.5,104.6 458.6,52.4 475.3,52.4 475.3,118.4 451.4,118.4 435.4,64.3 435.1,64.3 435.7,118.4 419.7,118.4 
							419.7,52.4 443.8,52.4 459.2,104.6 						"/>
						<polygon points="159.3,58.6 150.3,119.1 132.2,119.1 144.6,52.4 174.1,52.4 186.5,119.1 168.7,119.1 159.7,58.6 						"/>
						<polygon points="237.4,103.3 245.7,52.4 273.1,52.4 274.5,119.1 257.7,119.1 257.3,59.1 257,59.1 245.7,119.1 228.7,119.1 
							217.5,59.1 217.1,59.1 216.7,119.1 199.9,119.1 201.4,52.4 228.8,52.4 237,103.3 						"/>
						<path d="M104.2,100.6c0.7,1.4,0.4,3.3,0.1,4.6c-0.5,2.2-2.1,4.5-6.5,4.5c-4.2,0-6.8-2.4-6.8-6.1l0-6.1H73.2l0,4.8
							c0,15,11.6,19.5,24.2,19.5c12.2,0,21.9-4.1,23.5-15.3c0.8-5.4,0.2-9.2-0.1-10.6c-2.8-14.1-28.1-18.2-30-26.1
							c-0.3-1.4-0.2-2.7-0.1-3.5c0.5-2.2,1.9-4.5,6.1-4.5c3.9,0,6.2,2.4,6.2,6.1c0,1.2,0,4.1,0,4.1h16.5v-4.7
							c0-14.6-12.9-16.9-22.4-16.9c-11.9,0-21.7,4-23.3,14.9c-0.5,3-0.6,5.6,0.2,9C76.8,87.9,100.7,91.9,104.2,100.6z"/>
						<path d="M321,100.4c0.6,1.5,0.4,3.3,0.1,4.5c-0.5,2.2-2,4.4-6.5,4.4c-4.2,0-6.7-2.4-6.7-6v-6h-17.8l0,4.7
							c0,14.8,11.7,19.3,24.2,19.3c12,0,21.9-4.1,23.5-15.2c0.8-5.3,0.2-9.1-0.1-10.5c-2.8-13.9-28-18-29.9-25.8
							c-0.3-1.3-0.2-2.7-0.1-3.5c0.5-2.1,1.9-4.5,6.1-4.5c3.9,0,6.2,2.4,6.2,6c0,1.2,0,4.1,0,4.1h16.6v-4.6
							c0-14.5-13-16.7-22.4-16.7c-11.8,0-21.5,3.9-23.2,14.8c-0.5,2.9-0.6,5.6,0.1,8.9C294,87.9,317.6,91.8,321,100.4z"/>
						<path d="M377.3,109c4.7,0,6.1-3.2,6.4-4.8c0.2-0.7,0.2-1.7,0.2-2.3V52.4h17v48.1c0,1.3-0.1,3.4-0.2,4
							c-1.2,12.5-11.1,16.6-23.4,16.6c-12.3,0-22.3-4-23.4-16.6c-0.1-0.7-0.2-2.7-0.1-4V52.4h17v49.6c0,0.5,0,1.5,0.2,2.3
							C371.2,105.8,372.7,109,377.3,109z"/>
						<path d="M516.6,108.3c4.9,0,6.6-3,6.9-4.9c0.1-0.8,0.2-1.5,0.2-2.1v-9.8h-6.9v-9.8h23.8v18c0,1.3,0,2.1-0.2,4
							c-1.1,12.2-11.7,16.6-23.6,16.6c-11.9,0-22.5-4.4-23.6-16.6c-0.2-1.9-0.2-2.8-0.2-4l0-28.2c0-1.2,0.1-3.3,0.3-4.4
							c1.5-12.6,11.7-16.6,23.6-16.6c11.9,0,22.3,4,23.6,16.6c0.2,2.1,0.1,4.4,0.1,4.4v2.2h-16.9V70c0,0,0-1.6-0.2-2.5
							c-0.3-1.5-1.6-4.9-6.7-4.9c-4.9,0-6.3,3.2-6.7,4.9c-0.2,0.9-0.3,2.1-0.3,3.1v30.7c0,0.6,0,1.3,0.2,2.1
							C510,105.3,511.7,108.3,516.6,108.3z"/>
					</g>
				</g>
			</g>
		</g>
	</g>
</g>
</svg>
