<svg width="80" height="80" viewBox="0 0 80 80" fill="none" xmlns="http://www.w3.org/2000/svg">
<path fill-rule="evenodd" clip-rule="evenodd" d="M62.5 25H62.35C61.0332 13.6532 51.423 5.09375 40 5.09375C28.577 5.09375 18.9668 13.6532 17.65 25H17.5C10.5964 25 5 30.5964 5 37.5C5 44.4036 10.5964 50 17.5 50H22.5V27.5C22.5 17.835 30.335 10 40 10C49.665 10 57.5 17.835 57.5 27.5V52.5C57.4965 57.2204 54.1927 61.2955 49.575 62.275C48.1943 57.4325 43.4282 54.372 38.4503 55.1313C33.4724 55.8907 29.8355 60.233 29.9614 65.2669C30.0872 70.3009 33.9365 74.456 38.9461 74.9656C43.9558 75.4753 48.563 72.1805 49.7 67.275C57.0307 66.1882 62.469 59.9107 62.5 52.5V50C69.4036 50 75 44.4036 75 37.5C75 30.5964 69.4036 25 62.5 25ZM10 37.5C10 33.3579 13.3579 30 17.5 30V45C13.3579 45 10 41.6421 10 37.5ZM40 70C37.2386 70 35 67.7614 35 65C35 62.2386 37.2386 60 40 60C42.7614 60 45 62.2386 45 65C45 67.7614 42.7614 70 40 70ZM62.5 45V30C66.6421 30 70 33.3579 70 37.5C70 41.6421 66.6421 45 62.5 45Z" fill="#161616"/>
</svg>
